<?xml version="1.0" encoding="UTF-8"?>
<svg width="120px" height="164px" viewBox="0 0 120 164" version="1.1" xmlns="http://www.w3.org/2000/svg" xmlns:xlink="http://www.w3.org/1999/xlink">
    <!-- Generator: sketchtool 51.3 (57544) - http://www.bohemiancoding.com/sketch -->
    <title>994771A9-1443-469F-8E91-9888BCE64D11</title>
    <desc>Created with sketchtool.</desc>
    <defs>
        <polygon id="path-1" points="0 86 92 86 92 0 0 0"></polygon>
    </defs>
    <g id="Desktop" stroke="none" stroke-width="1" fill="none" fill-rule="evenodd">
        <g id="Home" transform="translate(-622.000000, -1249.000000)">
            <g id="About" transform="translate(285.000000, 934.000000)">
                <g id="Icons" transform="translate(0.000000, 315.000000)">
                    <g id="1800Attendees" transform="translate(335.000000, 0.000000)">
                        <text id="Attendees" font-family="ProximaNova-Bold, Proxima Nova" font-size="18" font-weight="bold" fill="#4A4A4A">
                            <tspan x="21.267" y="163">Attendees</tspan>
                        </text>
                        <text id="1800+" font-family="ProximaNova-Bold, Proxima Nova" font-size="45" font-weight="bold" letter-spacing="-0.7289999" fill="#4A4A4A">
                            <tspan x="2.19999975" y="134">1800+</tspan>
                        </text>
                        <g id="AttendeeIcon" transform="translate(17.000000, 0.000000)">
                            <path d="M76.8311385,70 L74.4934154,70 L74.4934154,67.6760296 L75.6622769,67.6760296 L75.6622769,45.5983107 C75.6622769,40.2984961 71.1399517,36.302429 65.1425232,36.302429 L62.8048001,36.302429 C55.2609678,36.302429 51.587236,32.7955576 49.249513,23.3637237 L48,18.5833166 L50.2629159,18 L51.5159355,22.794351 C53.8606717,32.2505866 57.1568612,33.9784586 62.8048001,33.9784586 L65.1425232,33.9784586 C72.4724538,33.9784586 78,38.973833 78,45.5983107 L78,68.8380148 C78,69.4794306 77.4775189,70 76.8311385,70" id="Fill-1" fill="#2989C9"></path>
                            <path d="M56,86 L53.6820145,86 L53.6820145,44.3768455 C52.3213571,42.943137 47.3643452,37.4223067 45,30.7916971 L47.1823833,30 C49.6973975,37.0551089 55.5966705,43.0109633 55.6569382,43.0706037 C55.8771468,43.2904546 56,43.5886566 56,43.9008917 L56,86 Z" id="Fill-3" fill="#2989C9"></path>
                            <path d="M72,86 L70,86 L70,50.15625 C70,49.518 70.447,49 71,49 L73,49 L73,51.3125 L72,51.3125 L72,86 Z" id="Fill-5" fill="#2989C9"></path>
                            <mask id="mask-2" fill="white">
                                <use xlink:href="#path-1"></use>
                            </mask>
                            <g id="Clip-8"></g>
                            <polygon id="Fill-7" fill="#2989C9" mask="url(#mask-2)" points="62 86 64 86 64 66 62 66"></polygon>
                            <path d="M63,18.2857143 C59.5595,18.2857143 58.3333333,21.2377143 58.3333333,24 C58.3333333,26.7622857 59.5595,29.7142857 63,29.7142857 C66.4405,29.7142857 67.6666667,26.7622857 67.6666667,24 C67.6666667,21.2377143 66.4405,18.2857143 63,18.2857143 M63,32 C58.8128333,32 56,28.7851429 56,24 C56,19.2148571 58.8128333,16 63,16 C67.1871667,16 70,19.2148571 70,24 C70,28.7851429 67.1871667,32 63,32" id="Fill-9" fill="#2989C9" mask="url(#mask-2)"></path>
                            <path d="M38.2493872,86 L35.9399217,86 L35.9399217,44.1232356 C35.9399217,43.8126496 36.0623234,43.5160225 36.2817226,43.2973328 C36.3544708,43.2240484 43.6500721,35.8642071 45.4456815,27.8250316 C46.7436011,22.0157938 47.6569947,17.70714 47.6569947,17.70714 C47.7620754,17.1464567 47.6466021,16.5718144 47.3255864,16.1193127 C47.0530695,15.7331159 46.6569962,15.4830185 46.2124241,15.4178769 C45.4941803,15.265492 45.0103473,15.308532 44.6650822,15.5388542 C44.1188936,15.8994597 43.8463767,16.7788717 43.711273,17.4512264 L42.4052703,23.0173464 C40.0934954,32.4698627 36.4641704,35.9805314 29.0115254,35.9805314 L26.70206,35.9805314 C20.7771264,35.9805314 16.3094654,39.9809257 16.3094654,45.2864791 L16.3094654,67.3881047 L17.4641982,67.3881047 L17.4641982,69.7145916 L15.1547327,69.7145916 C14.5161655,69.7145916 14,69.1934586 14,68.5513482 L14,45.2864791 C14,38.6548281 19.460731,33.6540445 26.70206,33.6540445 L29.0115254,33.6540445 C34.5911939,33.6540445 37.8475402,31.9243015 40.1604698,22.4717852 L41.45608,16.9556847 C41.7678578,15.3829796 42.4225913,14.2395113 43.3948762,13.5950744 C44.2713183,13.0157791 45.3567671,12.857578 46.6211994,13.1286138 C47.621198,13.2740192 48.5657693,13.8614571 49.206646,14.7699503 C49.8856288,15.7296261 50.1465984,16.9673172 49.9202708,18.1666212 C49.9156519,18.1933758 48.9999488,22.5124987 47.6997198,28.3356954 C45.9641565,36.102672 39.7944196,42.9727878 38.2493872,44.5978389 L38.2493872,86 Z" id="Fill-10" fill="#2989C9" mask="url(#mask-2)"></path>
                            <path d="M22,86 L20,86 L20,51.3125 L19,51.3125 L19,49 L21,49 C21.553,49 22,49.518 22,50.15625 L22,86 Z" id="Fill-11" fill="#2989C9" mask="url(#mask-2)"></path>
                            <polygon id="Fill-12" fill="#2989C9" mask="url(#mask-2)" points="28 86 30 86 30 66 28 66"></polygon>
                            <path d="M29,18.2857143 C25.5595,18.2857143 24.3333333,21.2377143 24.3333333,24 C24.3333333,26.7622857 25.5595,29.7142857 29,29.7142857 C32.4405,29.7142857 33.6666667,26.7622857 33.6666667,24 C33.6666667,21.2377143 32.4405,18.2857143 29,18.2857143 M29,32 C24.8128333,32 22,28.7851429 22,24 C22,19.2148571 24.8128333,16 29,16 C33.1871667,16 36,19.2148571 36,24 C36,28.7851429 33.1871667,32 29,32" id="Fill-13" fill="#2989C9" mask="url(#mask-2)"></path>
                            <path d="M90.8461538,72 L88.5384615,72 L88.5384615,69.6774194 L89.6923077,69.6774194 L89.6923077,46.4516129 C89.6923077,39.3781935 83.9080769,38.3225806 80.4615385,38.3225806 L77,38.3225806 L77,36 L80.4615385,36 C87.6869231,36 92,39.9065806 92,46.4516129 L92,70.8387097 C92,71.4797419 91.4842308,72 90.8461538,72" id="Fill-14" fill="#2989C9" mask="url(#mask-2)"></path>
                            <path d="M86,86 L84,86 L84,52.1666667 C84,51.5226667 84.447,51 85,51 L87,51 L87,53.3333333 L86,53.3333333 L86,86 Z" id="Fill-15" fill="#2989C9" mask="url(#mask-2)"></path>
                            <polygon id="Fill-16" fill="#2989C9" mask="url(#mask-2)" points="76 86 78 86 78 73 76 73"></polygon>
                            <path d="M78,22.3333333 C74.5883491,22.3333333 74.3224308,25.9056667 74.3224308,27 C74.3224308,28.0943333 74.5883491,31.6666667 78,31.6666667 C81.4116509,31.6666667 81.6775692,28.0943333 81.6775692,27 C81.6775692,25.9056667 81.4116509,22.3333333 78,22.3333333 M78,34 C74.4106832,34 72,31.1871667 72,27 C72,22.8128333 74.4106832,20 78,20 C81.5893168,20 84,22.8128333 84,27 C84,31.1871667 81.5893168,34 78,34" id="Fill-17" fill="#2989C9" mask="url(#mask-2)"></path>
                            <path d="M3.46153846,72 L1.15384615,72 C0.515769231,72 0,71.4797419 0,70.8387097 L0,46.4516129 C0,39.9065806 4.31307692,36 11.5384615,36 L15,36 L15,38.3225806 L11.5384615,38.3225806 C8.09192308,38.3225806 2.30769231,39.3781935 2.30769231,46.4516129 L2.30769231,69.6774194 L3.46153846,69.6774194 L3.46153846,72 Z" id="Fill-18" fill="#2989C9" mask="url(#mask-2)"></path>
                            <path d="M8,86 L6,86 L6,53.3333333 L5,53.3333333 L5,51 L7,51 C7.553,51 8,51.5226667 8,52.1666667 L8,86 Z" id="Fill-19" fill="#2989C9" mask="url(#mask-2)"></path>
                            <polygon id="Fill-20" fill="#2989C9" mask="url(#mask-2)" points="14 86 16 86 16 73 14 73"></polygon>
                            <path d="M14,22.3333333 C10.5883491,22.3333333 10.3224308,25.9056667 10.3224308,27 C10.3224308,28.0943333 10.5883491,31.6666667 14,31.6666667 C17.4116509,31.6666667 17.6775692,28.0943333 17.6775692,27 C17.6775692,25.9056667 17.4116509,22.3333333 14,22.3333333 M14,34 C10.4106832,34 8,31.1871667 8,27 C8,22.8128333 10.4106832,20 14,20 C17.5893168,20 20,22.8128333 20,27 C20,31.1871667 17.5893168,34 14,34" id="Fill-21" fill="#2989C9" mask="url(#mask-2)"></path>
                            <path d="M46,8 C45.447,8 45,7.488 45,6.85714286 L45,1.14285714 C45,0.512 45.447,0 46,0 C46.553,0 47,0.512 47,1.14285714 L47,6.85714286 C47,7.488 46.553,8 46,8" id="Fill-22" fill="#505050" mask="url(#mask-2)"></path>
                            <path d="M37.9158161,11 C37.6383344,11 37.3608527,10.8937765 37.1494897,10.6824135 L33.3178575,6.84969741 C32.8940475,6.42697137 32.8940475,5.73977057 33.3178575,5.31704453 C33.7405835,4.89431849 34.4267004,4.89431849 34.8505103,5.31704453 L38.6821425,9.14976064 C39.1059525,9.57357059 39.1059525,10.2596875 38.6821425,10.6824135 C38.4707795,10.8937765 38.1932978,11 37.9158161,11" id="Fill-23" fill="#505050" mask="url(#mask-2)"></path>
                            <path d="M54.0841839,11 C53.8067022,11 53.5292205,10.8937765 53.3178575,10.6824135 C52.8940475,10.2596875 52.8940475,9.57357059 53.3178575,9.14976064 L57.1494897,5.31704453 C57.5732996,4.89431849 58.2594165,4.89431849 58.6821425,5.31704453 C59.1059525,5.73977057 59.1059525,6.42697137 58.6821425,6.84969741 L54.8505103,10.6824135 C54.6391473,10.8937765 54.3616656,11 54.0841839,11" id="Fill-24" fill="#505050" mask="url(#mask-2)"></path>
                        </g>
                    </g>
                </g>
            </g>
        </g>
    </g>
</svg>