<?xml version="1.0" encoding="UTF-8"?>
<svg width="92px" height="145px" viewBox="0 0 92 145" version="1.1" xmlns="http://www.w3.org/2000/svg" xmlns:xlink="http://www.w3.org/1999/xlink">
    <!-- Generator: sketchtool 51.3 (57544) - http://www.bohemiancoding.com/sketch -->
    <title>CF1C97D4-F5B6-47BD-BB44-67A054F9C449</title>
    <desc>Created with sketchtool.</desc>
    <defs></defs>
    <g id="Desktop" stroke="none" stroke-width="1" fill="none" fill-rule="evenodd">
        <g id="Home" transform="translate(-458.000000, -1268.000000)">
            <g id="About" transform="translate(285.000000, 934.000000)">
                <g id="Icons" transform="translate(0.000000, 315.000000)">
                    <g id="50Sessions" transform="translate(168.000000, 8.000000)">
                        <text id="Sessions" font-family="ProximaNova-Bold, Proxima Nova" font-size="18" font-weight="bold" fill="#4A4A4A">
                            <tspan x="15.09" y="155">Sessions</tspan>
                        </text>
                        <text id="50+" font-family="ProximaNova-Bold, Proxima Nova" font-size="45" font-weight="bold" letter-spacing="-0.7289999" fill="#4A4A4A">
                            <tspan x="13.1234999" y="126">50+</tspan>
                        </text>
                        <g id="SessionIcon" transform="translate(5.000000, 11.000000)" fill="#9BC653">
                            <path d="M80.8484848,66 C80.4581818,66 80.0762424,65.8342979 79.8072121,65.5281702 L69.0710909,53.3617021 L41.8181818,53.3617021 C37.9750909,53.3617021 34.8484848,50.2119574 34.8484848,46.3404255 L34.8484848,22.4680851 C34.8484848,18.5965532 37.9750909,15.4468085 41.8181818,15.4468085 L54.3636364,15.4468085 L54.3636364,7.0212766 C54.3636364,4.6986383 52.4873939,2.80851064 50.1818182,2.80851064 L6.96969697,2.80851064 C4.66412121,2.80851064 2.78787879,4.6986383 2.78787879,7.0212766 L2.78787879,30.893617 C2.78787879,33.2162553 4.66412121,35.106383 6.96969697,35.106383 L11.1515152,35.106383 C11.9223636,35.106383 12.5454545,35.7340851 12.5454545,36.5106383 L12.5454545,45.4557447 L21.2617576,35.5782128 C21.5252121,35.2777021 21.9057576,35.106383 22.3030303,35.106383 L29.2727273,35.106383 L29.2727273,37.9148936 L22.9289091,37.9148936 L12.1927879,50.0813617 C11.8080606,50.5180851 11.1989091,50.6669362 10.6566667,50.4619149 C10.1158182,50.2540851 9.75757576,49.7317021 9.75757576,49.1489362 L9.75757576,37.9148936 L6.96969697,37.9148936 C3.12660606,37.9148936 0,34.7651489 0,30.893617 L0,7.0212766 C0,3.14974468 3.12660606,0 6.96969697,0 L50.1818182,0 C54.0249091,0 57.1515152,3.14974468 57.1515152,7.0212766 L57.1515152,16.8510638 C57.1515152,17.627617 56.5284242,18.2553191 55.7575758,18.2553191 L41.8181818,18.2553191 C39.5126061,18.2553191 37.6363636,20.1454468 37.6363636,22.4680851 L37.6363636,46.3404255 C37.6363636,48.6630638 39.5126061,50.5531915 41.8181818,50.5531915 L69.6969697,50.5531915 C70.0942424,50.5531915 70.4747879,50.7245106 70.7382424,51.0250213 L79.4545455,60.9025532 L79.4545455,51.9574468 C79.4545455,51.1808936 80.0776364,50.5531915 80.8484848,50.5531915 L85.030303,50.5531915 C87.3358788,50.5531915 89.2121212,48.6630638 89.2121212,46.3404255 L89.2121212,22.4680851 C89.2121212,20.1454468 87.3358788,18.2553191 85.030303,18.2553191 L62.7272727,18.2553191 L62.7272727,15.4468085 L85.030303,15.4468085 C88.8733939,15.4468085 92,18.5965532 92,22.4680851 L92,46.3404255 C92,50.2119574 88.8733939,53.3617021 85.030303,53.3617021 L82.2424242,53.3617021 L82.2424242,64.5957447 C82.2424242,65.1785106 81.8841818,65.7008936 81.3433333,65.9087234 C81.1816364,65.9705106 81.0143636,66 80.8484848,66" id="Fill-1"></path>
                            <path d="M50.1818182,37 L42,37 L42,34.2727273 L50.1818182,34.2727273 C52.4372727,34.2727273 54.2727273,32.4372727 54.2727273,30.1818182 L54.2727273,22 L57,22 L57,30.1818182 C57,33.9413636 53.9413636,37 50.1818182,37" id="Fill-3"></path>
                            <path d="M66.549912,22 C66.1787822,22 65.8076525,21.8592 65.524956,21.5790367 L61.425132,17.515951 C60.8582893,16.9541878 60.8582893,16.0447347 61.425132,15.4844082 L65.524956,11.4213224 C66.0917987,10.8595592 67.0080253,10.8595592 67.574868,11.4213224 C68.1417107,11.981649 68.1417107,12.891102 67.574868,13.4528653 L64.5,16.5001796 L67.574868,19.5474939 C68.1417107,20.1092571 68.1417107,21.0172735 67.574868,21.5790367 C67.2921715,21.8592 66.9210417,22 66.549912,22" id="Fill-5"></path>
                            <path d="M25.450088,42 C25.0789583,42 24.7078285,41.8592 24.425132,41.5790367 C23.8582893,41.0172735 23.8582893,40.1092571 24.425132,39.5474939 L27.5,36.5001796 L24.425132,33.4528653 C23.8582893,32.891102 23.8582893,31.981649 24.425132,31.4213224 C24.9919747,30.8595592 25.9082013,30.8595592 26.475044,31.4213224 L30.574868,35.4844082 C31.1417107,36.0447347 31.1417107,36.9541878 30.574868,37.515951 L26.475044,41.5790367 C26.1923475,41.8592 25.8212178,42 25.450088,42" id="Fill-7"></path>
                        </g>
                    </g>
                </g>
            </g>
        </g>
    </g>
</svg>