<?xml version="1.0" encoding="UTF-8"?>
<svg width="88px" height="161px" viewBox="0 0 88 161" version="1.1" xmlns="http://www.w3.org/2000/svg" xmlns:xlink="http://www.w3.org/1999/xlink">
    <!-- Generator: sketchtool 51.3 (57544) - http://www.bohemiancoding.com/sketch -->
    <title>CEC165BB-FAE5-40F6-ABF7-5A1B40764657</title>
    <desc>Created with sketchtool.</desc>
    <defs></defs>
    <g id="Desktop" stroke="none" stroke-width="1" fill="none" fill-rule="evenodd">
        <g id="Home" transform="translate(-292.000000, -1255.000000)">
            <g id="About" transform="translate(285.000000, 934.000000)">
                <g id="Icons" transform="translate(0.000000, 315.000000)">
                    <g id="75Speakers" transform="translate(0.000000, 6.000000)">
                        <text id="Speakers" font-family="ProximaNova-Bold, Proxima Nova" font-size="18" font-weight="bold" fill="#4A4A4A">
                            <tspan x="13.209" y="157">Speakers</tspan>
                        </text>
                        <text id="75+" font-family="ProximaNova-Bold, Proxima Nova" font-size="45" font-weight="bold" letter-spacing="-0.7289999" fill="#4A4A4A">
                            <tspan x="14.8109999" y="128">75+</tspan>
                        </text>
                        <g id="SpeakerIcon" transform="translate(7.000000, 0.000000)">
                            <path d="M59,36 L56.8571429,36 L56.8571429,28.6111111 C56.8571429,23.1063889 53.0032143,19.1111111 47.6932143,19.1111111 L40.3067857,19.1111111 C34.9967857,19.1111111 31.1428571,23.1063889 31.1428571,28.6111111 L31.1428571,36 L29,36 L29,28.6111111 C29,21.9917222 33.8610714,17 40.3067857,17 L47.6932143,17 C54.1389286,17 59,21.9917222 59,28.6111111 L59,36 Z" id="Fill-1" fill="#61C2D7"></path>
                            <path d="M44.5,2.14285714 C41.30525,2.14285714 40.1666667,4.91035714 40.1666667,7.5 C40.1666667,10.0896429 41.30525,12.8571429 44.5,12.8571429 C47.69475,12.8571429 48.8333333,10.0896429 48.8333333,7.5 C48.8333333,4.91035714 47.69475,2.14285714 44.5,2.14285714 M44.5,15 C40.6119167,15 38,11.9860714 38,7.5 C38,3.01392857 40.6119167,0 44.5,0 C48.3880833,0 51,3.01392857 51,7.5 C51,11.9860714 48.3880833,15 44.5,15" id="Fill-3" fill="#61C2D7"></path>
                            <path d="M44.5,53.1428571 C41.30525,53.1428571 40.1666667,55.9103571 40.1666667,58.5 C40.1666667,61.0896429 41.30525,63.8571429 44.5,63.8571429 C47.69475,63.8571429 48.8333333,61.0896429 48.8333333,58.5 C48.8333333,55.9103571 47.69475,53.1428571 44.5,53.1428571 M44.5,66 C40.6119167,66 38,62.9860714 38,58.5 C38,54.0139286 40.6119167,51 44.5,51 C48.3880833,51 51,54.0139286 51,58.5 C51,62.9860714 48.3880833,66 44.5,66" id="Fill-5" fill="#4A4A4A"></path>
                            <path d="M15.5,53.1428571 C12.30525,53.1428571 11.1666667,55.9103571 11.1666667,58.5 C11.1666667,61.0896429 12.30525,63.8571429 15.5,63.8571429 C18.69475,63.8571429 19.8333333,61.0896429 19.8333333,58.5 C19.8333333,55.9103571 18.69475,53.1428571 15.5,53.1428571 M15.5,66 C11.6119167,66 9,62.9860714 9,58.5 C9,54.0139286 11.6119167,51 15.5,51 C19.3880833,51 22,54.0139286 22,58.5 C22,62.9860714 19.3880833,66 15.5,66" id="Fill-7" fill="#4A4A4A"></path>
                            <path d="M57.9311233,80 C57.4163824,80 56.9614454,79.6170909 56.8781471,79.0814545 C56.0430281,73.7578182 52.3736306,70.1818182 47.7452345,70.1818182 L40.2547937,70.1818182 C35.6285335,70.1818182 31.9591359,73.7578182 31.121881,79.0803636 C31.0289714,79.676 30.477921,80.0807273 29.8991045,79.9847273 C29.3160163,79.8887273 28.9198153,79.3301818 29.0137929,78.7356364 C30.0219161,72.3145455 34.5403157,68 40.2547937,68 L47.7452345,68 C53.4629162,68 57.9802479,72.3145455 58.9862353,78.7367273 C59.0802128,79.3323636 58.682944,79.8909091 58.1009237,79.9858182 C58.0432556,79.9956364 57.9877234,80 57.9311233,80" id="Fill-9" fill="#4A4A4A"></path>
                            <path d="M28.9311223,80 C28.4163809,80 27.9625115,79.6181818 27.8781451,79.0814545 C27.0419574,73.7578182 23.3725564,70.1818182 18.7452239,70.1818182 L11.2547761,70.1818182 C6.62744358,70.1818182 2.95804257,73.7578182 2.12185486,79.0803636 C2.02894511,79.676 1.47789421,80.0807273 0.899077168,79.9847273 C0.317056345,79.8898182 -0.0802129139,79.3301818 0.0137647602,78.7356364 C1.02082097,72.3145455 5.53922483,68 11.2547761,68 L18.7452239,68 C24.4607752,68 28.979179,72.3145455 29.9862352,78.7367273 C30.0802129,79.3312727 29.6829437,79.8909091 29.1009228,79.9858182 C29.0432547,79.9956364 28.9877225,80 28.9311223,80" id="Fill-11" fill="#4A4A4A"></path>
                            <path d="M72.5,53.1428571 C69.30525,53.1428571 68.1666667,55.9103571 68.1666667,58.5 C68.1666667,61.0896429 69.30525,63.8571429 72.5,63.8571429 C75.69475,63.8571429 76.8333333,61.0896429 76.8333333,58.5 C76.8333333,55.9103571 75.69475,53.1428571 72.5,53.1428571 M72.5,66 C68.6119167,66 66,62.9860714 66,58.5 C66,54.0139286 68.6119167,51 72.5,51 C76.3880833,51 79,54.0139286 79,58.5 C79,62.9860714 76.3880833,66 72.5,66" id="Fill-13" fill="#4A4A4A"></path>
                            <path d="M59.0688777,80 C59.0122775,80 58.9567453,79.9956364 58.8990772,79.9858182 C58.3170563,79.8909091 57.9197871,79.3312727 58.0137648,78.7367273 C59.020821,72.3145455 63.5392248,68 69.2547761,68 L76.7452239,68 C82.4607752,68 86.979179,72.3145455 87.9862352,78.7356364 C88.0802129,79.3301818 87.6829437,79.8898182 87.1009228,79.9847273 C86.5156982,80.0807273 85.9710549,79.676 85.8781451,79.0803636 C85.0419574,73.7578182 81.3725564,70.1818182 76.7452239,70.1818182 L69.2547761,70.1818182 C64.6274436,70.1818182 60.9580426,73.7578182 60.1218549,79.0814545 C60.0374885,79.6181818 59.5836191,80 59.0688777,80" id="Fill-15" fill="#4A4A4A"></path>
                            <path d="M25.15,41.7142857 L63.85,41.7142857 L63.85,38.2857143 L25.15,38.2857143 L25.15,41.7142857 Z M64.925,44 L24.075,44 C23.480525,44 23,43.4891429 23,42.8571429 L23,37.1428571 C23,36.5108571 23.480525,36 24.075,36 L64.925,36 C65.519475,36 66,36.5108571 66,37.1428571 L66,42.8571429 C66,43.4891429 65.519475,44 64.925,44 Z" id="Fill-17" fill="#61C2D7"></path>
                            <path d="M28,68 C27.447,68 27,67.53512 27,66.96 L27,43.04 C27,42.46488 27.447,42 28,42 C28.553,42 29,42.46488 29,43.04 L29,66.96 C29,67.53512 28.553,68 28,68" id="Fill-19" fill="#61C2D7"></path>
                            <path d="M60,66.96 L60,43.04 C60,42.46488 60.447,42 61,42 C61.553,42 62,42.46488 62,43.04 L62,66.96 C62,67.53512 61.553,68 61,68 C60.447,68 60,67.53512 60,66.96 Z" id="Fill-20" fill="#61C2D7"></path>
                            <path d="M38.0452407,35.8333333 L50.9536836,35.8333333 L50.9622892,34.6156667 L51.8465176,27.4949167 C51.8605017,27.3865833 51.8163979,27.31075 51.7765968,27.26525 C51.7367958,27.2208333 51.6668751,27.1666667 51.5593047,27.1666667 L37.4406953,27.1666667 C37.3331249,27.1666667 37.2632042,27.2208333 37.2234032,27.26525 C37.1836021,27.31075 37.1394983,27.3865833 37.1534824,27.4949167 L38.0452407,34.75 L38.0452407,35.8333333 Z M53.1050907,38 L35.8938336,38 L35.8938336,34.81825 L35.0192865,27.7635833 C34.9310789,27.06375 35.148371,26.3595833 35.6109235,25.832 C36.0734761,25.30225 36.7404123,25 37.4406953,25 L51.5593047,25 C52.258512,25 52.9254482,25.30225 53.3890765,25.832 C53.851629,26.3595833 54.0689211,27.06375 53.9807135,27.7635833 L53.1050907,34.81825 L53.1050907,38 Z" id="Fill-21" fill="#61C2D7"></path>
                        </g>
                    </g>
                </g>
            </g>
        </g>
    </g>
</svg>