<?xml version="1.0" encoding="UTF-8"?>
<svg width="104px" height="108px" viewBox="0 0 104 108" version="1.1" xmlns="http://www.w3.org/2000/svg" xmlns:xlink="http://www.w3.org/1999/xlink">
    <!-- Generator: sketchtool 51.3 (57544) - http://www.bohemiancoding.com/sketch -->
    <title>667152DF-8C32-4E83-A4BB-08E281690CA0</title>
    <desc>Created with sketchtool.</desc>
    <defs>
        <polygon id="path-1" points="0 0.150938564 72.7461538 0.150938564 72.7461538 36.8372869 0 36.8372869"></polygon>
        <polygon id="path-3" points="0.108702347 0.0927647668 10.2022833 0.0927647668 10.2022833 40.0103627 0.108702347 40.0103627"></polygon>
        <polygon id="path-5" points="0.18788935 0.178077868 10.2827595 0.178077868 10.2827595 33.2361214 0.18788935 33.2361214"></polygon>
        <polygon id="path-7" points="0.0440645757 0.102291044 10.1374371 0.102291044 10.1374371 31.7542561 0.0440645757 31.7542561"></polygon>
        <polygon id="path-9" points="0.123251578 0.102714434 10.2292218 0.102714434 10.2292218 27.7320503 0.123251578 27.7320503"></polygon>
    </defs>
    <g id="Desktop" stroke="none" stroke-width="1" fill="none" fill-rule="evenodd">
        <g id="Home" transform="translate(-668.000000, -2488.000000)">
            <g id="Sessions" transform="translate(-90.000000, 2128.000000)">
                <g id="Business">
                    <g transform="translate(690.000000, 360.000000)">
                        <g transform="translate(68.000000, 0.000000)">
                            <polygon id="Rectangle-15-Copy" fill="#F2BF42" fill-rule="nonzero" transform="translate(51.961538, 53.663667) scale(-1, 1) translate(-51.961538, -53.663667) " points="0 0 103.923077 0 103.923077 92.9998213 77.074855 92.9998213 77.074855 107.327334 51.9615385 92.9998213 0 92.9998213"></polygon>
                            <g id="Tracks/Business" opacity="0.45" transform="translate(16.000000, 15.000000)">
                                <rect id="Background" x="0" y="0" width="72.7461538" height="62.238342"></rect>
                                <g id="Group-16">
                                    <g id="Group-3" transform="translate(0.000000, 0.060756)">
                                        <mask id="mask-2" fill="white">
                                            <use xlink:href="#path-1"></use>
                                        </mask>
                                        <g id="Clip-2"></g>
                                        <path d="M72.7461538,3.38311962 C72.4099374,4.2332869 72.0595469,5.07795011 71.7397973,5.93425655 C69.345219,12.3452292 66.956894,18.7585304 64.5656508,25.1707732 C64.5022845,25.3405526 64.430789,25.5071566 64.3369903,25.7400212 C62.6438183,22.9217251 60.9831633,20.1578346 59.3052076,17.3643069 C51.1993267,22.2290589 43.1351342,27.0686192 35.0540578,31.9183409 C32.6682341,29.4209745 30.296376,26.9380034 27.9030484,24.4325926 C20.1817424,28.5663617 12.4754443,32.6925097 4.73371104,36.8372869 C4.14444635,35.7030249 3.56643751,34.5907791 2.989054,33.4783217 C2.07837221,31.7233698 1.16935795,29.9675711 0.255132643,28.2143128 C0.188014415,28.0853905 0.085877981,27.9753091 0,27.8563365 L0,27.7640375 C0.0696195283,27.7413861 0.144450099,27.728261 0.20823326,27.6941781 C7.56038896,23.7585556 14.9117109,19.8208161 22.2630328,15.8837118 C24.7933066,14.5286518 27.3237889,13.1744386 29.8822023,11.8047717 C32.1740188,14.204335 34.4602074,16.5983942 36.762446,19.0089657 C42.5344052,15.5430944 48.2867708,12.0890782 54.0295481,8.64056595 C53.7721226,8.143506 53.56514,7.68391606 53.3066723,7.25671547 C52.6344478,6.14531651 51.9282473,5.05487535 51.2560229,3.943053 C50.4966697,2.68621954 49.7596199,1.41562591 49.0127733,0.150748038 L49.1947429,0.150748038 C50.284893,0.303591858 51.3740009,0.46913738 52.4662354,0.606315766 C55.8752994,1.03478653 59.2858225,1.45394271 62.6959288,1.87394567 C66.0455869,2.28632761 69.3960788,2.69553412 72.7461538,3.10601081 L72.7461538,3.38311962 Z" id="Fill-1" fill="#FFFFFF" mask="url(#mask-2)"></path>
                                    </g>
                                    <g id="Group-6" transform="translate(48.358475, 22.077041)">
                                        <mask id="mask-4" fill="white">
                                            <use xlink:href="#path-3"></use>
                                        </mask>
                                        <g id="Clip-5"></g>
                                        <path d="M0.108702347,40.010405 C0.110369881,30.8247455 0.112245856,21.6392977 0.11391339,12.4538499 C0.114121832,10.4543902 0.107660139,8.45471887 0.125169242,6.45547091 C0.126836775,6.2808225 0.239186853,6.0289054 0.377592142,5.94507417 C3.57446252,4.00488912 6.78217186,2.08312154 9.98842212,0.159025315 C10.0251079,0.13700903 10.0713819,0.131504959 10.1935288,0.0927647668 L10.1935288,0.686781051 C10.1935288,13.5946745 10.1935288,26.5025679 10.1939456,39.410673 C10.1939456,39.6105131 10.1993651,39.8105649 10.2022833,40.010405 L0.108702347,40.010405 Z" id="Fill-4" fill="#FFFFFF" mask="url(#mask-4)"></path>
                                    </g>
                                    <g id="Group-9" transform="translate(20.635728, 28.851282)">
                                        <mask id="mask-6" fill="white">
                                            <use xlink:href="#path-5"></use>
                                        </mask>
                                        <g id="Clip-8"></g>
                                        <path d="M0.18788935,33.2361637 C0.193308834,33.0824731 0.203522477,32.9289942 0.203522477,32.7755153 C0.204773128,23.2966582 0.209567287,13.8180127 0.194142601,4.33936728 C0.193308834,3.80208527 0.265638104,3.4720527 0.805710553,3.20108305 C2.73025278,2.23511858 4.61852616,1.19421406 6.52701838,0.178077868 C7.08084798,0.729331754 7.63551135,1.2693658 8.17641756,1.82316003 C8.78423356,2.44533175 9.39225801,3.06835026 9.97214282,3.71677217 C10.1284741,3.89142058 10.2720904,4.15900311 10.2725073,4.38445833 C10.286056,14.0015523 10.282721,23.618858 10.2814703,33.2361637 L0.18788935,33.2361637 Z" id="Fill-7" fill="#FFFFFF" mask="url(#mask-6)"></path>
                                    </g>
                                    <g id="Group-12" transform="translate(34.601322, 30.333147)">
                                        <mask id="mask-8" fill="white">
                                            <use xlink:href="#path-7"></use>
                                        </mask>
                                        <g id="Clip-11"></g>
                                        <path d="M0.0440645757,31.7542984 C0.0478165263,30.5539876 0.0544866608,29.3538884 0.0546951025,28.1535775 C0.0553204276,20.9667426 0.0574048446,13.7796959 0.0453152259,6.59286099 C0.0446899008,6.23255603 0.166211413,6.05198016 0.461573304,5.87627328 C3.52983515,4.04955677 6.589134,2.20738653 9.65135104,0.370296965 C9.77995957,0.29323997 9.9135707,0.225285862 10.1374371,0.102291044 L10.1374371,31.7542984 L0.0440645757,31.7542984 Z" id="Fill-10" fill="#FFFFFF" mask="url(#mask-8)"></path>
                                    </g>
                                    <g id="Group-15" transform="translate(6.878576, 34.355353)">
                                        <mask id="mask-10" fill="white">
                                            <use xlink:href="#path-9"></use>
                                        </mask>
                                        <g id="Clip-14"></g>
                                        <path d="M0.123251578,27.7320927 C0.132631455,27.5328876 0.150140558,27.3338943 0.150140558,27.1346893 C0.15159965,20.0854561 0.155143158,13.0362229 0.141594448,5.98698979 C0.140969123,5.57693649 0.260197776,5.3673584 0.621218803,5.17725625 C3.73846445,3.53344426 6.84403736,1.86634582 9.95336222,0.207080089 C10.0165201,0.173420577 10.0846805,0.149287343 10.1916111,0.102714434 C10.2072442,0.258945374 10.2289222,0.374530866 10.2289222,0.489904663 C10.2297559,9.49392983 10.2287137,18.4977433 10.2274631,27.5017685 C10.2274631,27.5784021 10.220376,27.6552474 10.2168325,27.7320927 L0.123251578,27.7320927 Z" id="Fill-13" fill="#FFFFFF" mask="url(#mask-10)"></path>
                                    </g>
                                </g>
                            </g>
                        </g>
                    </g>
                </g>
            </g>
        </g>
    </g>
</svg>