<svg id="Layer_1" data-name="Layer 1" xmlns="http://www.w3.org/2000/svg" viewBox="0 0 363 62.1"><defs><style>.cls-1{fill:#63c9d7;}.cls-2{fill:#fff;}</style></defs><title>Crosscut_logo2019_ko</title><path class="cls-1" d="M363.16,54.93A7.17,7.17,0,1,1,356,47.76a7.17,7.17,0,0,1,7.17,7.17Z"/><path class="cls-2" d="M30.91,0A30.66,30.66,0,0,1,54.28,10.77l-8.7,7.38A19.63,19.63,0,0,0,30.91,11.6,17.94,17.94,0,0,0,12.6,29.83,17.87,17.87,0,0,0,30.91,48a19.57,19.57,0,0,0,14.75-6.63l8.7,7.37A30.61,30.61,0,0,1,30.91,59.58C13.76,59.58-.16,47.07-.16,29.83S13.76,0,30.91,0Z"/><path class="cls-2" d="M60.91,16.9H73.25v5.72C75.16,18.4,79.63,16,85.35,16a29.2,29.2,0,0,1,3.23.25v11.6a19.91,19.91,0,0,0-4.14-.41c-7,0-11.19,4.06-11.19,10.85V58.67H60.91V16.9Z"/><path class="cls-2" d="M114.93,48.72a10.94,10.94,0,1,0-10.85-10.93,10.8,10.8,0,0,0,10.85,10.93Zm0-33.06c12.85,0,23.2,9.78,23.2,22.13s-10.35,22.12-23.2,22.12-23.2-9.78-23.2-22.12S102,15.66,114.93,15.66Z"/><path class="cls-2" d="M148.16,44.75c2.24,2.65,6.55,4.55,11.44,4.55,4.39,0,6.29-1.4,6.29-3.39,0-2.82-5.72-3.07-12.1-5.22-5.8-2-9.61-5.31-9.61-11.6,0-8.95,7.79-13.43,16.24-13.43,7.46,0,12.27,2.57,15.42,5.39L170,29.17c-1.82-1.49-5-3.07-9.86-3.07-2.81,0-4.14,1.25-4.14,2.65,0,2.82,3.4,2.32,11.43,5.14,7.54,2.57,10.28,6.55,10.28,11.85,0,8-5.64,14.09-18.4,14.09-9.36,0-15.08-3.57-18.23-7.46l7.13-7.62Z"/><path class="cls-2" d="M188.26,44.75c2.24,2.65,6.55,4.55,11.44,4.55,4.39,0,6.3-1.4,6.3-3.39,0-2.82-5.72-3.07-12.1-5.22-5.8-2-9.61-5.31-9.61-11.6,0-8.95,7.79-13.43,16.24-13.43,7.46,0,12.26,2.57,15.41,5.39l-5.88,8.12c-1.83-1.49-5-3.07-9.86-3.07-2.82,0-4.15,1.25-4.15,2.65,0,2.82,3.4,2.32,11.44,5.14,7.54,2.57,10.27,6.55,10.27,11.85,0,8-5.63,14.09-18.39,14.09-9.37,0-15.08-3.57-18.23-7.46l7.12-7.62Z"/><path class="cls-2" d="M245.44,15.58a22.37,22.37,0,0,1,17.4,7.79l-7.79,7.7a12.13,12.13,0,0,0-9.61-4.31A10.57,10.57,0,0,0,234.75,37.7a10.55,10.55,0,0,0,10.69,10.86,12.13,12.13,0,0,0,9.61-4.31L262.84,52a22.36,22.36,0,0,1-17.4,7.78c-12.76,0-23-9.28-23-22s10.28-22.12,23-22.12Z"/><path class="cls-2" d="M268.81,16.9h12.34V40.77c0,4.81,2.49,7.87,7.21,7.87,4.48,0,7.71-3.4,7.71-8.29V16.9h12.34V44c0,3.4.92,4.64,3.07,4.64a18,18,0,0,0,2.07-.16V58.75a20.92,20.92,0,0,1-5.55.66,14,14,0,0,1-6.79-1.49,8.22,8.22,0,0,1-3.73-4.47c-1.83,3.56-5.8,6.13-12.27,6.13-10.52,0-16.4-6.55-16.4-17.32V16.9Z"/><path class="cls-2" d="M321.18,28.09h-5.47V16.9h5.47V.91h12v16h9.28V28.09h-9.28V43c0,4.06,1.66,5.55,5.3,5.55a23.29,23.29,0,0,0,3.15-.33V59.16a28.7,28.7,0,0,1-6.05.58c-6.13,0-14.41-1.82-14.41-14.91V28.09Z"/></svg>