<?xml version="1.0" encoding="UTF-8"?>
<svg width="342px" height="125px" viewBox="0 0 342 125" version="1.1" xmlns="http://www.w3.org/2000/svg" xmlns:xlink="http://www.w3.org/1999/xlink">
    <!-- Generator: sketchtool 51.3 (57544) - http://www.bohemiancoding.com/sketch -->
    <title>55BF8EA5-76EB-4DAD-AB2C-D2D6C0DBF546</title>
    <desc>Created with sketchtool.</desc>
    <defs></defs>
    <g id="Desktop" stroke="none" stroke-width="1" fill="none" fill-rule="evenodd">
        <g id="Home" transform="translate(-811.000000, -1265.000000)">
            <g id="About" transform="translate(285.000000, 934.000000)">
                <g id="Icons" transform="translate(0.000000, 315.000000)">
                    <g id="EndlessIdeas" transform="translate(526.000000, 16.000000)">
                        <path d="M137.008949,60.9333333 L137.008949,20.024 L166.10393,20.024 L166.10393,27.6906667 L145.7621,27.6906667 L145.7621,36.3386667 L165.672437,36.3386667 L165.672437,44.0053333 L145.7621,44.0053333 L145.7621,53.2666667 L166.10393,53.2666667 L166.10393,60.9333333 L137.008949,60.9333333 Z M191.85792,60.9333333 L191.85792,43.024 C191.85792,38.9146667 189.700453,37.504 186.37179,37.504 C183.289695,37.504 180.88566,39.2213333 179.59118,41 L179.59118,60.9333333 L171.762657,60.9333333 L171.762657,31.3093333 L179.59118,31.3093333 L179.59118,35.1733333 C181.502079,32.904 185.138952,30.5733333 190.008663,30.5733333 C196.542705,30.5733333 199.686442,34.2533333 199.686442,40.0186667 L199.686442,60.9333333 L191.85792,60.9333333 Z M226.919838,60.9333333 L226.919838,57.1306667 C224.577446,60.0746667 221.310424,61.6693333 217.735194,61.6693333 C210.214881,61.6693333 204.543825,56.0266667 204.543825,46.152 C204.543825,36.4613333 210.153239,30.5733333 217.735194,30.5733333 C221.248783,30.5733333 224.577446,32.1066667 226.919838,35.112 L226.919838,20.024 L234.810003,20.024 L234.810003,60.9333333 L226.919838,60.9333333 Z M226.919838,51.3653333 L226.919838,40.8773333 C225.625358,38.9146667 222.78983,37.504 220.139228,37.504 C215.701011,37.504 212.618915,41 212.618915,46.152 C212.618915,51.2426667 215.701011,54.7386667 220.139228,54.7386667 C222.78983,54.7386667 225.625358,53.328 226.919838,51.3653333 Z M241.578284,60.9333333 L241.578284,20.024 L249.406807,20.024 L249.406807,60.9333333 L241.578284,60.9333333 Z M254.26419,46.0906667 C254.26419,37.504 260.613306,30.5733333 269.674667,30.5733333 C278.551102,30.5733333 284.592009,37.1973333 284.592009,46.888 L284.592009,48.6053333 L262.462564,48.6053333 C262.955699,52.3466667 265.976152,55.4746667 271.030789,55.4746667 C273.804675,55.4746667 277.071696,54.3706667 278.982595,52.5306667 L282.434542,57.56 C279.475731,60.2586667 274.790945,61.6693333 270.167802,61.6693333 C261.106442,61.6693333 254.26419,55.5973333 254.26419,46.0906667 Z M269.674667,36.768 C264.804956,36.768 262.709131,40.3866667 262.33928,43.3306667 L277.010054,43.3306667 C276.825128,40.5093333 274.852587,36.768 269.674667,36.768 Z M286.675506,57.0693333 L290.065811,51.6106667 C292.223278,53.6346667 296.661495,55.6586667 300.36001,55.6586667 C303.750315,55.6586667 305.353004,54.3093333 305.353004,52.4693333 C305.353004,50.4453333 302.64076,49.8933333 299.373739,49.28 C294.257461,48.2986667 287.661776,47.0106667 287.661776,39.896 C287.661776,34.928 292.038352,30.5733333 299.866874,30.5733333 C304.921511,30.5733333 308.928235,32.2906667 311.887047,34.6213333 L308.743309,39.9573333 C306.955694,38.056 303.565389,36.5226667 299.928516,36.5226667 C297.092988,36.5226667 295.243731,37.8106667 295.243731,39.4666667 C295.243731,41.184 297.586124,41.6746667 300.914787,42.3493333 C306.031065,43.3306667 312.873317,44.7413333 312.873317,52.1626667 C312.873317,57.56 308.250174,61.6693333 299.990158,61.6693333 C294.812238,61.6693333 289.819243,59.952 286.675506,57.0693333 Z M315.080098,57.0693333 L318.470403,51.6106667 C320.62787,53.6346667 325.066087,55.6586667 328.764602,55.6586667 C332.154907,55.6586667 333.757596,54.3093333 333.757596,52.4693333 C333.757596,50.4453333 331.045352,49.8933333 327.778331,49.28 C322.662053,48.2986667 316.066368,47.0106667 316.066368,39.896 C316.066368,34.928 320.442944,30.5733333 328.271466,30.5733333 C333.326103,30.5733333 337.332827,32.2906667 340.291639,34.6213333 L337.147901,39.9573333 C335.360286,38.056 331.969981,36.5226667 328.333108,36.5226667 C325.497581,36.5226667 323.648323,37.8106667 323.648323,39.4666667 C323.648323,41.184 325.990716,41.6746667 329.319379,42.3493333 C334.435657,43.3306667 341.277909,44.7413333 341.277909,52.1626667 C341.277909,57.56 336.654766,61.6693333 328.39475,61.6693333 C323.21683,61.6693333 318.223835,59.952 315.080098,57.0693333 Z M137.748652,120.733333 L137.748652,79.824 L142.86493,79.824 L142.86493,120.733333 L137.748652,120.733333 Z M172.872212,120.733333 L172.872212,116.317333 C170.653103,119.322667 167.01623,121.469333 162.824581,121.469333 C155.0577,121.469333 149.57157,115.581333 149.57157,105.952 C149.57157,96.5066667 154.996058,90.3733333 162.824581,90.3733333 C166.831305,90.3733333 170.468177,92.336 172.872212,95.5866667 L172.872212,79.824 L177.495355,79.824 L177.495355,120.733333 L172.872212,120.733333 Z M172.872212,112.698667 L172.872212,99.2666667 C171.20788,96.6906667 167.63265,94.4826667 163.934135,94.4826667 C157.95487,94.4826667 154.379639,99.3893333 154.379639,105.952 C154.379639,112.514667 157.95487,117.36 163.934135,117.36 C167.63265,117.36 171.20788,115.274667 172.872212,112.698667 Z M184.017069,105.890667 C184.017069,97.304 190.18126,90.3733333 198.687844,90.3733333 C207.687562,90.3733333 212.988767,97.3653333 212.988767,106.258667 L212.988767,107.424 L188.88678,107.424 C189.256632,113.005333 193.201714,117.666667 199.612472,117.666667 C203.002777,117.666667 206.454724,116.317333 208.797117,113.925333 L211.016226,116.930667 C208.057414,119.874667 204.05069,121.469333 199.180979,121.469333 C190.366186,121.469333 184.017069,115.152 184.017069,105.890667 Z M198.626202,94.176 C192.277085,94.176 189.133348,99.512 188.88678,104.050667 L208.427265,104.050667 C208.365623,99.6346667 205.406812,94.176 198.626202,94.176 Z M238.064696,120.733333 L238.064696,117.36 C235.599019,120.058667 232.208714,121.469333 228.20199,121.469333 C223.147354,121.469333 217.784507,118.096 217.784507,111.656 C217.784507,105.032 223.147354,101.904 228.20199,101.904 C232.270356,101.904 235.660661,103.192 238.064696,105.952 L238.064696,100.616 C238.064696,96.6293333 234.859316,94.36 230.544383,94.36 C226.969152,94.36 224.071982,95.648 221.42138,98.4693333 L219.263913,95.28 C222.469293,91.968 226.291091,90.3733333 231.160802,90.3733333 C237.448277,90.3733333 242.687839,93.1946667 242.687839,100.370667 L242.687839,120.733333 L238.064696,120.733333 Z M238.064696,114.477333 L238.064696,108.896 C236.27708,106.442667 233.133343,105.216 229.866322,105.216 C225.551388,105.216 222.530934,107.914667 222.530934,111.717333 C222.530934,115.458667 225.551388,118.157333 229.866322,118.157333 C233.133343,118.157333 236.27708,116.930667 238.064696,114.477333 Z M248.346566,116.808 L250.750601,113.496 C252.723142,115.765333 256.483298,117.728 260.551664,117.728 C265.113166,117.728 267.578842,115.581333 267.578842,112.637333 C267.578842,109.386667 263.941969,108.528 259.935245,107.546667 C254.880609,106.381333 249.147911,105.032 249.147911,98.8986667 C249.147911,94.2986667 253.154635,90.3733333 260.243455,90.3733333 C265.298091,90.3733333 268.873322,92.2746667 271.277357,94.6666667 L269.11989,97.856 C267.332274,95.7093333 264.065253,94.1146667 260.243455,94.1146667 C256.175089,94.1146667 253.647771,96.1386667 253.647771,98.776 C253.647771,101.597333 257.038076,102.394667 260.921516,103.314667 C266.099436,104.48 272.078701,105.952 272.078701,112.514667 C272.078701,117.482667 268.071977,121.469333 260.366739,121.469333 C255.497028,121.469333 251.36702,119.997333 248.346566,116.808 Z" id="Endless-Ideas" fill="#4A4A4A"></path>
                        <g id="IdeasIcon">
                            <path d="M45.8333333,113.75 C45.8333333,117.88625 49.2718333,121.25 53.5,121.25 C57.7281667,121.25 61.1666667,117.88625 61.1666667,113.75 L45.8333333,113.75 Z M53.5,125 C47.1596667,125 42,119.9525 42,113.75 L42,111.875 C42,110.84 42.8586667,110 43.9166667,110 L63.0833333,110 C64.1413333,110 65,110.84 65,111.875 L65,113.75 C65,119.9525 59.8403333,125 53.5,125 Z" id="Fill-1" fill="#4A4A4A"></path>
                            <path d="M41.6,45.7857143 C39.5062,45.7857143 37.8,47.4855 37.8,49.5714286 C37.8,51.6573571 39.5062,53.3571429 41.6,53.3571429 L45.4,53.3571429 L45.4,49.5714286 C45.4,47.4855 43.6938,45.7857143 41.6,45.7857143 Z M60.6,53.3571429 L64.4,53.3571429 C66.4976,53.3571429 68.2,51.6573571 68.2,49.5714286 C68.2,47.4855 66.4976,45.7857143 64.4,45.7857143 C62.3024,45.7857143 60.6,47.4855 60.6,49.5714286 L60.6,53.3571429 Z M58.7,95 C57.6512,95 56.8,94.152 56.8,93.1071429 L56.8,57.1428571 L49.2,57.1428571 L49.2,93.1071429 C49.2,94.152 48.3488,95 47.3,95 C46.2512,95 45.4,94.152 45.4,93.1071429 L45.4,57.1428571 L41.6,57.1428571 C37.4086,57.1428571 34,53.7470714 34,49.5714286 C34,45.3957857 37.4086,42 41.6,42 C45.7914,42 49.2,45.3957857 49.2,49.5714286 L49.2,53.3571429 L56.8,53.3571429 L56.8,49.5714286 C56.8,45.3957857 60.2086,42 64.4,42 C68.5914,42 72,45.3957857 72,49.5714286 C72,53.7470714 68.5914,57.1428571 64.4,57.1428571 L60.6,57.1428571 L60.6,93.1071429 C60.6,94.152 59.7488,95 58.7,95 Z" id="Fill-3" fill="#F27A4A"></path>
                            <path d="M66.125,95 L39.875,95 C38.84,95 38,94.104 38,93 C38,91.896 38.84,91 39.875,91 L66.125,91 C67.16,91 68,91.896 68,93 C68,94.104 67.16,95 66.125,95" id="Fill-5" fill="#4A4A4A"></path>
                            <path d="M66.125,104 L39.875,104 C38.84,104 38,103.104 38,102 C38,100.896 38.84,100 39.875,100 L66.125,100 C67.16,100 68,100.896 68,102 C68,103.104 67.16,104 66.125,104" id="Fill-7" fill="#4A4A4A"></path>
                            <path d="M53,11 C51.896,11 51,10.1786667 51,9.16666667 L51,1.83333333 C51,0.821333333 51.896,0 53,0 C54.104,0 55,0.821333333 55,1.83333333 L55,9.16666667 C55,10.1786667 54.104,11 53,11" id="Fill-9" fill="#F2BF42"></path>
                            <path d="M32.000943,17 C31.3092837,17 30.6376146,16.6743116 30.2657978,16.0851449 L26.2677675,9.74702915 C25.7160393,8.87242773 26.0438778,7.75264514 27.0034051,7.24764515 C27.9549363,6.73898575 29.1783336,7.0390582 29.7340598,7.91731905 L33.7320901,14.2554348 C34.2838183,15.1300363 33.9559798,16.2498189 33.0004506,16.7548188 C32.6846062,16.9231522 32.3407756,17 32.000943,17" id="Fill-11" fill="#F2BF42"></path>
                            <path d="M15.1669079,34 C14.8558886,34 14.5412103,33.9160283 14.2521454,33.7320902 L7.91832956,29.7334364 C7.04015752,29.1816222 6.74011541,27.9580341 7.24506433,27.0023559 C7.7536723,26.042679 8.8696826,25.7147893 9.74785463,26.2706022 L16.0816704,30.269256 C16.9598425,30.8210702 17.2598846,32.0446583 16.7549357,33.0003366 C16.414644,33.6441198 15.7999236,34 15.1669079,34" id="Fill-13" fill="#F2BF42"></path>
                            <path d="M9.16666667,55 L1.83333333,55 C0.821333333,55 0,54.104 0,53 C0,51.896 0.821333333,51 1.83333333,51 L9.16666667,51 C10.1786667,51 11,51.896 11,53 C11,54.104 10.1786667,55 9.16666667,55" id="Fill-15" fill="#F2BF42"></path>
                            <path d="M8.8330921,81 C8.20007642,81 7.58535599,80.6401618 7.24506433,80.0004494 C6.74011541,79.0448791 7.04015752,77.8214292 7.91832956,77.2696772 L14.2521454,73.2714749 C15.1266584,72.7117266 16.2463277,73.0475756 16.7549357,74.003146 C17.2598846,74.9587163 16.9598425,76.1821662 16.0816704,76.7339181 L9.74785463,80.7321204 C9.45878967,80.9160378 9.14411136,81 8.8330921,81" id="Fill-17" fill="#F2BF42"></path>
                            <path d="M97.1702586,81 C96.8592091,81 96.5445002,80.9160004 96.2554071,80.7320014 L89.9173155,76.7320223 C89.0390581,76.1800252 88.7389867,74.9560316 89.2476442,74.0000366 C89.7526423,73.0440416 90.8724206,72.7160433 91.7470186,73.2680405 L98.0851102,77.2680195 C98.9597082,77.8200166 99.2597795,79.0440102 98.7547815,80.0000052 C98.4181161,80.6400019 97.7996765,81 97.1702586,81" id="Fill-19" fill="#F2BF42"></path>
                            <path d="M104.166667,55 L96.8333333,55 C95.8213333,55 95,54.104 95,53 C95,51.896 95.8213333,51 96.8333333,51 L104.166667,51 C105.178667,51 106,51.896 106,53 C106,54.104 105.178667,55 104.166667,55" id="Fill-21" fill="#F2BF42"></path>
                            <path d="M90.8297414,34 C90.2003235,34 89.5818839,33.6400412 89.2452185,33.0001144 C88.7402205,32.0442239 89.0402918,30.8203639 89.9148898,30.2684271 L96.2529814,26.2688849 C97.1275794,25.7169481 98.2473577,26.040911 98.7523558,27.0008011 C99.2610133,27.9566917 98.9609419,29.1805516 98.0826845,29.7324885 L91.7445929,33.7320307 C91.4554998,33.9160096 91.1407909,34 90.8297414,34" id="Fill-23" fill="#F2BF42"></path>
                            <path d="M75.0000209,17 C74.6600245,17 74.3160281,16.923121 74.0000314,16.7547195 C73.0440414,16.2495148 72.7160448,15.1292783 73.2680391,14.2543223 L77.2679972,7.91363733 C77.8199914,7.03868137 79.0479786,6.74214818 79.9999686,7.24369197 C80.9559586,7.74889667 81.2839552,8.86913316 80.7319609,9.74408912 L76.7320028,16.0847741 C76.3640067,16.6741796 75.6880137,17 75.0000209,17" id="Fill-25" fill="#F2BF42"></path>
                            <path d="M71.2509546,86.4806558 C83.4340294,79.7834978 91,66.9869384 91,53.0824354 C91,42.6959391 86.9073077,32.9985762 79.47054,25.7645795 C72.0413725,18.5305828 62.1991505,14.6851425 51.8553172,15.0201908 C32.4330792,15.5951031 15.9141067,31.875403 15.040087,51.3158172 C14.3788721,65.9741789 21.9372425,79.4522569 34.7663318,86.4920779 C36.4763704,87.4286901 37.5441945,89.130583 37.7227985,91 L41.5228842,91 C41.3404801,87.7370868 39.5202391,84.759726 36.5941731,83.1530173 C25.0457126,76.8175592 18.2397591,64.6834816 18.8363726,51.4871487 C19.6267904,33.9922989 34.4889256,19.3415519 51.9693198,18.8275574 C61.2567292,18.5001239 70.1337294,21.9876718 76.8256803,28.4944614 C83.5176313,35.0050584 87.1999143,43.7353502 87.1999143,53.0824354 C87.1999143,65.5972496 80.3863606,77.1145338 69.4269135,83.1415952 C66.4856472,84.7635334 64.6578059,87.7408941 64.4716017,91 L68.2754875,91 C68.4540916,89.130583 69.5295158,87.4248827 71.2509546,86.4806558" id="Fill-27" fill="#F2BF42"></path>
                            <path d="M64.1945032,91.5213333 L64.1945032,110.166667 L41.8129586,110.166667 L41.8017659,91.5098333 C41.8017659,91.3335 41.7420719,91.1725 41.7308792,91 L38,91 C38.0186544,91.1725 38.0708867,91.3373333 38.0708867,91.5098333 L38.0820793,112.083333 C38.0820793,113.145167 38.9215272,114 39.947519,114 L66.0599428,114 C67.0896655,114 67.9253824,113.145167 67.9253824,112.083333 L67.9253824,91.5213333 C67.9253824,91.345 67.9813456,91.1763333 68,91 L64.2653899,91 C64.2579281,91.1763333 64.1945032,91.3411667 64.1945032,91.5213333" id="Fill-29" fill="#4A4A4A"></path>
                        </g>
                    </g>
                </g>
            </g>
        </g>
    </g>
</svg>