<?xml version="1.0" encoding="UTF-8"?>
<svg width="104px" height="108px" viewBox="0 0 104 108" version="1.1" xmlns="http://www.w3.org/2000/svg" xmlns:xlink="http://www.w3.org/1999/xlink">
    <!-- Generator: sketchtool 51.3 (57544) - http://www.bohemiancoding.com/sketch -->
    <title>4EC9373B-382F-4829-A5AB-291677E069ED</title>
    <desc>Created with sketchtool.</desc>
    <defs></defs>
    <g id="Desktop" stroke="none" stroke-width="1" fill="none" fill-rule="evenodd">
        <g id="Home" transform="translate(-983.000000, -2856.000000)">
            <g id="Sessions" transform="translate(-90.000000, 2128.000000)">
                <g id="Interactive-&amp;-Social">
                    <g transform="translate(1005.000000, 728.000000)">
                        <g id="InteractiveSocial" transform="translate(68.000000, 0.000000)">
                            <polygon id="Rectangle-15-Copy-4" fill="#A95CEC" fill-rule="nonzero" transform="translate(51.961538, 53.812723) scale(-1, 1) translate(-51.961538, -53.812723) " points="0 0 103.923077 0 103.923077 93.2581373 77.074855 93.2581373 77.074855 107.625446 51.9615385 93.2581373 0 93.2581373"></polygon>
                            <g id="Tracks/Interactive" opacity="0.45" transform="translate(25.000000, 18.000000)">
                                <rect id="Background" x="0" y="0" width="54.9307692" height="54.9813084"></rect>
                                <path d="M54.8428937,42.2256811 C53.3762901,45.2180468 51.3597403,47.6410739 48.7931839,49.494835 C46.2266276,51.3485962 43.3827754,52.670675 40.261542,53.4611113 C37.1403086,54.2515475 33.8310987,54.6467597 30.3338131,54.6467597 C25.0126743,54.6467597 20.1428711,53.7810568 15.7242576,52.0496251 C13.2611156,51.0709897 11.1129496,49.7771403 9.279695,48.168038 C7.44644046,46.5589357 5.94695474,44.7146122 4.78119287,42.6350121 C3.61543101,40.555412 2.75992505,38.4099745 2.21464934,36.198635 C1.66937363,33.9872956 1.39673986,31.7148255 1.39673986,29.3811566 C1.39673986,25.8994733 1.97491147,22.4931206 3.13127203,19.1619965 C4.28763259,15.8308724 6.04094974,12.8291418 8.39127609,10.1567146 C10.7416024,7.48428732 13.7217715,5.35766937 17.3318728,3.77679692 C20.9419741,2.19592447 25.1066899,1.4055001 29.8261452,1.4055001 C34.714824,1.4055001 38.9406474,2.36059621 42.5037421,4.27081709 C46.0668368,6.18103797 48.7837733,8.75462208 50.6546331,11.9916466 C52.5254929,15.2286712 53.4609087,18.776171 53.4609087,22.6342526 C53.4609087,26.0594762 52.6665103,29.3199768 51.0776897,32.415852 C49.4888691,35.5117272 47.2983978,38.0053279 44.5062101,39.8967289 C41.7140224,41.7881298 38.6069376,42.7338161 35.1848624,42.7338161 C33.4926275,42.7338161 32.2892784,42.4656364 31.5747792,41.929269 C30.86028,41.3929016 30.3338148,40.6071821 29.9953678,39.572087 C29.1116451,40.4001631 28.0869182,41.1341286 26.9211563,41.7740055 C25.7553945,42.4138825 24.2606093,42.7338161 22.4367561,42.7338161 C20.4060741,42.7338161 18.5916494,42.2586205 16.9934275,41.3082151 C15.3952056,40.3578096 14.1401501,38.9839768 13.2282235,37.1866754 C12.3162969,35.3893739 11.8603404,33.2768707 11.8603404,30.8491023 C11.8603404,28.195495 12.4526138,25.4572391 13.6371783,22.6342526 C14.8217427,19.8112661 16.5421558,17.4446979 18.7984691,15.534477 C21.0547824,13.6242561 23.7059107,12.66916 26.7519337,12.66916 C30.117601,12.66916 32.5901072,13.9300751 34.1695265,16.451943 L34.7900096,13.3749031 L42.1229911,13.3749031 L37.9770362,33.2768586 C37.694997,34.650712 37.5539796,35.4787756 37.5539796,35.7610743 C37.5539796,36.6456101 37.920625,37.0878713 38.6539268,37.0878713 C39.6504652,37.0878713 40.9337241,36.4291843 42.5037421,35.1117906 C44.0737601,33.7943969 45.4416295,32.020647 46.6073914,29.7904876 C47.7731532,27.5603283 48.3560254,25.0902521 48.3560254,22.3801851 C48.3560254,20.6675733 48.0504876,18.9079381 47.4394027,17.1012267 C46.8283179,15.2945153 45.8082916,13.5819292 44.3792931,11.9634169 C42.9502947,10.3449046 41.0183554,9.02753068 38.5834174,8.01125553 C36.1484793,6.99498038 33.1918131,6.48685043 29.7133301,6.48685043 C25.1254931,6.48685043 21.2804168,7.29138952 18.1779861,8.90049184 C15.0755553,10.5095942 12.6829589,12.5374091 11.0001253,14.9839974 C9.31729162,17.4305857 8.14684666,19.9383011 7.48875528,22.5072188 C6.83066391,25.0761366 6.50162316,27.4709342 6.50162316,29.6916836 C6.50162316,32.119452 6.91057381,34.49543 7.72848737,36.8196889 C8.54640094,39.1439478 9.85316279,41.2705658 11.6488121,43.1996066 C13.4444614,45.1286474 15.8652613,46.6718568 18.9112842,47.8292813 C21.9573071,48.9867058 25.6143601,49.5654094 29.8825527,49.5654094 C33.7746932,49.5654094 37.027496,49.1466726 39.6410589,48.3091866 C42.2546218,47.4717006 44.2382675,46.5213094 45.5920555,45.4579845 C46.9458434,44.3946596 48.064582,43.3172359 48.9483047,42.2256811 L54.8428937,42.2256811 Z M32.2516698,24.130428 C32.2516698,23.4340913 32.1529576,22.6154375 31.9555302,21.674442 C31.7581028,20.7334465 31.3068469,19.8301043 30.601749,18.9643885 C29.8966511,18.0986726 28.8484213,17.6658212 27.4570281,17.6658212 C25.67078,17.6658212 24.1618932,18.3950817 22.9303222,19.8536248 C21.6987512,21.3121678 20.7962394,23.0953275 20.2227597,25.2031575 C19.6492801,27.3109874 19.3625446,29.305868 19.3625446,31.187859 C19.3625446,33.3709686 19.8232017,34.9941615 20.7445296,36.0574864 C21.6658575,37.1208113 22.7469914,37.6524658 23.9879637,37.6524658 C25.4357648,37.6524658 26.6955208,37.1678604 27.7672696,36.198635 C28.8390184,35.2294096 29.7086261,33.996724 30.3761188,32.5005412 C31.0436115,31.0043583 31.5230709,29.5270175 31.8145113,28.0684745 C32.1059518,26.6099314 32.2516698,25.2972624 32.2516698,24.130428 Z" id="@" fill="#FFFFFF"></path>
                            </g>
                        </g>
                    </g>
                </g>
            </g>
        </g>
    </g>
</svg>