<?xml version="1.0" encoding="UTF-8"?>
<svg width="104px" height="108px" viewBox="0 0 104 108" version="1.1" xmlns="http://www.w3.org/2000/svg" xmlns:xlink="http://www.w3.org/1999/xlink">
    <!-- Generator: sketchtool 51.3 (57544) - http://www.bohemiancoding.com/sketch -->
    <title>0F3DD4A9-D1A7-4535-A107-C933CEFFF632</title>
    <desc>Created with sketchtool.</desc>
    <defs></defs>
    <g id="Desktop" stroke="none" stroke-width="1" fill="none" fill-rule="evenodd">
        <g id="Home" transform="translate(-353.000000, -2488.000000)">
            <g id="Sessions" transform="translate(-90.000000, 2128.000000)">
                <g id="Keynote">
                    <g transform="translate(375.000000, 360.000000)">
                        <g transform="translate(68.000000, 0.000000)">
                            <polygon id="Rectangle-15" fill="#F27A4A" fill-rule="nonzero" transform="translate(51.961538, 53.663667) scale(-1, 1) translate(-51.961538, -53.663667) " points="0 0 103.923077 0 103.923077 92.9998213 77.074855 92.9998213 77.074855 107.327334 51.9615385 92.9998213 0 92.9998213"></polygon>
                            <g id="Tracks/Keynote" opacity="0.45" transform="translate(25.000000, 15.000000)">
                                <rect id="Background" x="0" y="0" width="54.04" height="60.1637306"></rect>
                                <g id="Group-7" fill="#FFFFFF">
                                    <path d="M6.52558815,60.0468336 C5.77832166,59.8892702 5.03346459,59.7189499 4.28327236,59.5763843 C2.02202535,59.1473083 -0.646242675,56.2503126 0.140779363,52.8564921 C0.534892739,51.157427 1.46028471,49.7565947 2.60114828,48.4838473 C2.9722,48.0699415 3.42052548,47.7263704 3.8006986,47.3198774 C3.93080764,47.1805871 4.04026446,46.9401046 4.02374268,46.7584067 C3.91084382,45.5225506 4.30065465,44.502353 5.10488688,43.5530072 C7.02244637,41.2898856 8.87908178,38.9750473 10.7625651,36.6827919 C12.8998987,34.0816156 15.0408465,31.4835423 17.178008,28.8821936 C18.5250497,27.2426027 19.8662399,25.5983572 21.2132815,23.959111 C22.7319088,22.1109295 24.2539781,20.265851 25.7748427,18.4197381 C26.0264557,18.1142649 26.2789292,17.8094813 26.5861311,17.4379832 C28.6494609,22.086795 31.9607017,25.4230377 36.6291381,27.5029099 C36.2548164,27.8218294 35.9250692,28.1105808 35.587061,28.3893337 C32.0324682,31.3216691 28.477359,34.2534873 24.9205288,37.1832369 C22.212161,39.4142942 19.4996628,41.6401799 16.7919834,43.8722715 C14.6510357,45.6371892 12.5019991,47.3927979 10.3817036,49.182712 C9.34978051,50.0539655 8.20048395,50.3373729 6.90662178,50.0610335 C6.59460102,49.994319 6.40838675,50.0513797 6.21683732,50.2977235 C5.55372866,51.1500142 4.79510344,51.9388659 4.21856204,52.844942 C3.52671236,53.9323713 3.72789949,54.7662165 4.71696917,55.5828228 C4.91264904,55.7443512 5.19437987,55.8198575 5.4487465,55.8889855 C7.74372548,56.5128609 9.89018051,56.1053335 11.9480031,54.9744623 C13.9942948,53.8499694 15.7122161,52.3001931 17.4702371,50.7973065 C19.4936392,49.0675562 21.4972497,47.3190154 23.8307795,45.9898969 C27.5826011,43.8527916 31.5192603,43.5676603 35.6273329,44.639747 C39.3388827,45.6084003 42.5680308,47.4822677 45.520267,49.8841625 C47.8190322,51.7545822 49.8548257,53.880827 51.6493324,56.2384178 C52.2329299,57.0048589 52.2644246,57.7890561 51.785465,58.5568763 C51.4025382,59.171098 50.5895288,59.5751776 49.8880414,59.3743445 C49.4657033,59.2534999 48.9867437,59.0256017 48.7260093,58.6937531 C46.531882,55.9022594 44.0589497,53.4045164 41.1235795,51.4013573 C38.1644592,49.3819936 34.9618148,47.9958143 31.3125659,47.8710047 C28.9391084,47.7898096 26.8406698,48.5872807 24.876987,49.8426167 C22.2705036,51.508928 20.0851535,53.6980948 17.7011978,55.640573 C15.0962633,57.7631977 12.3317903,59.5393207 8.90317605,59.9754646 C8.84276828,59.9830498 8.78631885,60.0223544 8.72814841,60.0468336 L6.52558815,60.0468336 Z" id="Fill-1"></path>
                                    <path d="M40.8082372,0.000103433348 C41.6747703,0.195247683 42.5564484,0.339537203 43.4047387,0.595534738 C45.6036848,1.25923205 47.5327751,2.40148099 49.2193738,3.97194398 C50.9156103,5.55154359 52.2356319,7.38800268 53.0641305,9.55251787 C54.3664257,12.9549578 54.4509277,16.3374007 52.7951352,19.672609 C52.5674444,20.1316807 52.3464656,20.3004494 51.7800782,20.1820182 C48.5309662,19.5021164 45.5596267,18.1933397 42.8841304,16.2499995 C40.206741,14.3052802 38.0497877,11.8740794 36.4191221,8.9767389 C35.2023616,6.81498193 34.3774772,4.51669295 33.8549758,2.0980765 C33.7787346,1.74571356 33.8480917,1.56573954 34.1743969,1.38197296 C35.3594907,0.714827866 36.6325285,0.337468536 37.9618437,0.114914449 C38.1148423,0.0894008902 38.2635383,0.0390633276 38.4141275,0.000103433348 L40.8082372,0.000103433348 Z" id="Fill-3"></path>
                                    <path d="M30.569688,4.87698578 C33.5308734,14.376994 39.709332,20.5631701 49.1871564,23.5186056 C47.9516368,24.2748758 46.6942602,24.7394639 45.3410229,24.9365044 C41.4446356,25.5038364 37.9915829,24.4170967 34.8966742,22.0714007 C32.467972,20.2306319 30.7118441,17.8608015 29.732068,14.9772522 C28.6545379,11.8058133 28.6519564,8.64127008 30.1669695,5.56998921 C30.2764263,5.34795229 30.4154846,5.14056842 30.569688,4.87698578" id="Fill-5"></path>
                                </g>
                            </g>
                        </g>
                    </g>
                </g>
            </g>
        </g>
    </g>
</svg>