<?xml version="1.0" encoding="UTF-8"?>
<svg width="104px" height="108px" viewBox="0 0 104 108" version="1.1" xmlns="http://www.w3.org/2000/svg" xmlns:xlink="http://www.w3.org/1999/xlink">
    <!-- Generator: sketchtool 51.3 (57544) - http://www.bohemiancoding.com/sketch -->
    <title>F51E0BA9-AE0E-4C13-9A54-FFB3F5CA468B</title>
    <desc>Created with sketchtool.</desc>
    <defs>
        <polygon id="path-1" points="0 0.194104 46.4909894 0.194104 46.4909894 46.9356283 0 46.9356283"></polygon>
        <polygon id="path-3" points="0.131864517 0.0775714139 12.3515132 0.0775714139 12.3515132 15.9985261 0.131864517 15.9985261"></polygon>
        <polygon id="path-5" points="0.0871420555 0.182294628 10.6737527 0.182294628 10.6737527 8.99745518 0.0871420555 8.99745518"></polygon>
    </defs>
    <g id="Desktop" stroke="none" stroke-width="1" fill="none" fill-rule="evenodd">
        <g id="Home" transform="translate(-354.000000, -2856.000000)">
            <g id="Sessions" transform="translate(-90.000000, 2128.000000)">
                <g id="Race-&amp;-Social-Justice">
                    <g transform="translate(376.000000, 728.000000)">
                        <g id="RaceJustice" transform="translate(68.000000, 0.000000)">
                            <polygon id="Rectangle-15-Copy-3" fill="#61C2D7" fill-rule="nonzero" transform="translate(51.961538, 53.812723) scale(-1, 1) translate(-51.961538, -53.812723) " points="0 0 103.923077 0 103.923077 93.2581373 77.074855 93.2581373 77.074855 107.625446 51.9615385 93.2581373 0 93.2581373"></polygon>
                            <g id="Tracks/Race-Social-Justice" opacity="0.45" transform="translate(26.000000, 15.000000)">
                                <rect id="Background" x="0" y="0" width="51.9615385" height="58.2504673"></rect>
                                <g id="Group-14">
                                    <g id="Group-3" transform="translate(0.000000, 11.132544)">
                                        <mask id="mask-2" fill="white">
                                            <use xlink:href="#path-1"></use>
                                        </mask>
                                        <g id="Clip-2"></g>
                                        <path d="M46.4909894,24.7913779 C46.2348019,25.4912217 45.9922438,26.1514635 45.7513893,26.8121244 C44.8071374,29.4011271 43.8571356,31.9882441 42.9218279,34.5803899 C42.4724884,35.8254413 41.8953746,36.9977843 40.9975474,37.9930711 C40.6008082,38.4330926 40.1791531,38.8515321 39.7621831,39.2729051 C39.1486536,39.8931259 38.6927124,40.5969508 38.570475,41.4700792 C38.5221337,41.8145532 38.4980696,42.1651036 38.49594,42.5131397 C38.4878477,43.9111509 38.4925327,45.3091621 38.4925327,46.7071733 L38.4925327,46.935775 L9.03609024,46.935775 L9.03609024,46.6935536 C9.03523841,44.0387571 9.03821981,41.3839607 9.03140519,38.7289547 C9.0288497,37.7661457 8.96517552,36.808156 8.75626458,35.8625288 C8.45130998,34.482328 7.77431928,33.3099849 6.76575433,32.3121838 C5.50057606,31.0600082 4.23795326,29.8051088 2.9821451,28.5435042 C2.45933536,28.0182024 1.94142363,27.4861954 1.44927971,26.9334446 C0.689448692,26.0795933 0.30293151,25.0528764 0.11254784,23.9488415 C-0.139593395,22.4871319 0.0552623739,21.063348 0.464778925,19.6483645 C1.31894995,16.6970774 2.14841795,13.7388756 2.98746903,10.7831882 C3.48706644,9.02289262 3.96579406,7.25610146 4.49073337,5.50293003 C4.90727751,4.1116239 5.63814636,2.88836409 6.71911672,1.88741991 C7.73066307,0.951012215 8.9091678,0.345877865 10.3093609,0.213661876 C10.4750415,0.197946822 10.6460461,0.237967826 10.8147081,0.251168472 C10.8387723,0.253054278 10.8632624,0.248444529 10.8877524,0.247396859 C11.2661773,0.229586464 11.644815,0.197108686 12.0232398,0.196689617 C15.5566244,0.192918004 19.090222,0.194384743 22.6233937,0.194384743 C24.7976859,0.194594277 26.610377,1.66971402 27.0196806,3.7719692 C27.5028803,6.25431915 25.73129,8.63714042 23.1736749,8.94075527 C22.9762636,8.96422308 22.775871,8.9698805 22.5767561,8.97009003 C19.7350562,8.97197584 16.8935693,8.97134724 14.0516564,8.97134724 L13.780562,8.97134724 C14.0993588,9.60895937 14.4596823,10.1811969 14.9818532,10.6417527 C15.3468617,10.9638066 15.7638317,11.1852841 16.2555497,11.249192 C16.3907775,11.2665833 16.5287737,11.2682595 16.6652792,11.2682595 C20.0553437,11.2693072 23.4454082,11.2690977 26.8354727,11.2690977 L27.0831418,11.2690977 C27.0878268,11.3468348 27.0948544,11.4170287 27.0961322,11.4870131 C27.1135947,12.5380359 27.2967378,13.5563714 27.7235039,14.5248378 C28.418383,16.1015816 29.5915638,17.2227983 31.1521136,17.9599391 C32.6110828,18.6493062 34.1580034,18.931339 35.7715795,18.8590498 C36.1742814,18.8412394 36.5752797,18.7892749 36.9769169,18.752816 C36.9769169,19.1176148 36.9532786,19.4905854 36.980963,19.8597844 C37.1125705,21.6167275 37.7297203,23.1492595 39.1735696,24.2738288 C40.006232,24.9225462 40.9756128,25.2483717 42.0231489,25.3598438 C43.4659334,25.5134323 44.8618674,25.2707918 46.2377833,24.8661816 C46.3078462,24.8456472 46.3779091,24.8246938 46.4909894,24.7913779" id="Fill-1" fill="#FFFFFF" mask="url(#mask-2)"></path>
                                    </g>
                                    <path d="M40.3328017,7.27527383 C42.9383321,7.23483376 44.4684291,8.84971272 44.6852194,10.638924 C44.7840315,11.4558973 44.6411373,12.2250968 44.2527035,12.9496656 C42.6542473,15.9315447 41.0532357,18.9117476 39.4530758,21.892579 C38.9941532,22.7470589 38.5571652,23.6141108 38.0701323,24.4526661 C37.2732467,25.8249047 35.667337,26.5758747 34.1491657,26.3265292 C32.4859705,26.0528777 31.2254773,24.8824205 30.879422,23.3019051 C30.675835,22.372412 30.7955169,21.4890165 31.2408102,20.6481563 C33.2458015,16.8612473 35.2399321,13.0684714 37.2655802,9.29224864 C38.0094395,7.90534273 39.2707845,7.31298996 40.3328017,7.27527383" id="Fill-4" fill="#FFFFFF"></path>
                                    <g id="Group-8" transform="translate(39.610025, 17.209032)">
                                        <mask id="mask-4" fill="white">
                                            <use xlink:href="#path-3"></use>
                                        </mask>
                                        <g id="Clip-7"></g>
                                        <path d="M0.13226767,12.1741172 C0.123110514,11.5488676 0.27005093,10.9529527 0.56265402,10.3945444 C2.00352193,7.64378137 3.4420473,4.89176109 4.89377602,2.14665544 C5.67426389,0.670488023 7.33490355,-0.136427623 8.98979336,0.126956684 C10.6821636,0.396417479 12.0103772,1.68589005 12.2910547,3.32444636 C12.4345878,4.16174445 12.3266186,4.96593615 11.9264721,5.71397273 C10.4410962,8.49071802 8.96721991,11.2739589 7.43818775,14.0274459 C6.68155109,15.3896268 5.42957615,16.0551069 3.8543323,15.9947611 C2.34829951,15.9371393 1.22729321,15.2043987 0.530497494,13.8807721 C0.251736617,13.35107 0.125240085,12.7784134 0.13226767,12.1741172" id="Fill-6" fill="#FFFFFF" mask="url(#mask-4)"></path>
                                    </g>
                                    <path d="M24.9813827,9.002484 C25.2105246,8.55869087 25.4362592,8.11845982 25.6645492,7.67969551 C26.4567497,6.15533526 27.2370246,4.62510806 28.0460487,3.10954824 C28.7980003,1.70106032 29.9890695,0.935632416 31.6198952,0.923479441 C33.5852765,0.909021591 35.2444255,2.40970449 35.4492902,4.33176038 C35.5317046,5.10368384 35.4022267,5.83453862 35.0506345,6.52327706 C33.6304234,9.30442257 32.2036107,12.0826346 30.7791405,14.8618943 C30.7604002,14.8987723 30.7393175,14.9341836 30.7180218,14.9725283 C30.7384657,14.6676562 30.7868069,14.3696988 30.7731777,14.0744653 C30.6892726,12.2437663 29.8131669,10.8667085 28.2426081,9.91332854 C27.3236982,9.35533935 26.3004392,9.11395612 25.2311814,9.04208594 C25.168998,9.03789525 25.1068145,9.03475224 25.044844,9.02846622 C25.0280203,9.02658042 25.0120486,9.01547511 24.9813827,9.002484" id="Fill-9" fill="#FFFFFF"></path>
                                    <g id="Group-13" transform="translate(12.990385, 0.027239)">
                                        <mask id="mask-6" fill="white">
                                            <use xlink:href="#path-5"></use>
                                        </mask>
                                        <g id="Clip-12"></g>
                                        <path d="M0.0871420555,8.98446407 C0.313302522,8.50211668 0.530518789,8.03716061 0.749225757,7.57241407 C1.542704,5.88587447 2.33128424,4.19682045 3.13242894,2.51384292 C3.70294108,1.31488906 4.6301564,0.530184019 5.96348096,0.259885088 C7.80279165,-0.112875995 9.67340703,0.886810981 10.3674343,2.60226629 C10.8071908,3.68932897 10.7746083,4.76423867 10.2622335,5.82154751 C9.77285801,6.83192072 9.27879748,7.83977953 8.79219045,8.85120041 C8.73873821,8.96267253 8.67442516,8.99745518 8.5515489,8.99745518 C5.79183752,8.99368357 3.03212613,8.99473124 0.272201797,8.99431217 C0.218110687,8.99431217 0.16380662,8.98865475 0.0871420555,8.98446407" id="Fill-11" fill="#FFFFFF" mask="url(#mask-6)"></path>
                                    </g>
                                </g>
                            </g>
                        </g>
                    </g>
                </g>
            </g>
        </g>
    </g>
</svg>