<?xml version="1.0" encoding="UTF-8"?>
<svg width="104px" height="108px" viewBox="0 0 104 108" version="1.1" xmlns="http://www.w3.org/2000/svg" xmlns:xlink="http://www.w3.org/1999/xlink">
    <!-- Generator: sketchtool 51.3 (57544) - http://www.bohemiancoding.com/sketch -->
    <title>D9E4BDD1-0624-4B30-A60D-9470180C9198</title>
    <desc>Created with sketchtool.</desc>
    <defs>
        <polygon id="path-1" points="0 0.0948624055 28.5915404 0.0948624055 28.5915404 37.1020813 0 37.1020813"></polygon>
    </defs>
    <g id="Desktop" stroke="none" stroke-width="1" fill="none" fill-rule="evenodd">
        <g id="Home" transform="translate(-669.000000, -2856.000000)">
            <g id="Sessions" transform="translate(-90.000000, 2128.000000)">
                <g id="Science-&amp;-Environment">
                    <g transform="translate(691.000000, 728.000000)">
                        <g id="ScienceEnvironment" transform="translate(68.000000, 0.000000)">
                            <polygon id="Rectangle-15-Copy-4" fill="#C3D93A" fill-rule="nonzero" transform="translate(51.961538, 53.812723) scale(-1, 1) translate(-51.961538, -53.812723) " points="0 0 103.923077 0 103.923077 93.2581373 77.074855 93.2581373 77.074855 107.625446 51.9615385 93.2581373 0 93.2581373"></polygon>
                            <g id="Tracks/Science-Environment" opacity="0.45" transform="translate(24.000000, 10.000000)">
                                <rect id="Background" x="0" y="0" width="56.1184615" height="66.5719626"></rect>
                                <g id="Group-6">
                                    <path d="M53.9666827,6.36037859e-05 C53.8801489,0.792990802 53.7822628,1.54118334 53.719076,2.29192002 C53.4536914,5.44942397 53.4948164,8.60926006 53.8583012,11.7523471 C54.4077052,16.5031259 55.0631346,21.241608 55.637385,25.9898426 C56.4311827,32.5522692 56.3673533,39.0691131 54.3882137,45.4570534 C53.0983459,49.6197092 50.958776,53.2502133 47.6454306,56.1948565 C43.5916214,59.797375 38.7832117,61.7830852 33.5457743,62.9141725 C32.6249603,63.1130403 31.6932224,63.2603891 30.7655543,63.4278791 C30.7280706,63.4346635 30.6833043,63.4037096 30.5387243,63.3564308 C30.5387243,63.1605312 30.5447217,62.9304975 30.5378676,62.7006758 C30.3495923,56.4011448 31.4282662,50.2616834 32.9824477,44.19155 C35.3614849,34.899673 38.832476,26.0036234 43.0270097,17.3755579 C43.3155272,16.7817105 43.5969763,16.1842589 43.8818524,15.5885035 C43.8304462,15.5577617 43.77904,15.5270198 43.7274196,15.49649 C43.1084029,16.302138 42.4671103,17.091885 41.874011,17.915978 C39.5521632,21.1430221 37.0326156,24.249219 35.4021815,27.9106769 C34.0812558,30.8773695 32.8209465,33.8703517 31.5162994,36.8438287 C30.8767202,38.3005674 30.1983723,39.7405571 29.5337326,41.1862712 C29.4448427,41.3794147 29.3313206,41.5613215 29.2345056,41.7392001 C28.3841609,40.7898076 27.6102831,39.8132774 26.7207412,38.9539903 C24.1420765,36.463054 21.0170064,34.8248325 17.7165126,33.489365 C16.3940875,32.9544572 15.0577399,32.4517753 13.7145381,31.9709306 C13.183983,31.7809673 13.0231244,31.5360927 13.1452141,30.9560262 C14.330556,25.3260311 17.4963226,21.0448603 22.2034192,17.7957669 C28.2993407,13.5875284 34.7264039,9.9339149 41.3415282,6.59556419 C44.6739367,4.91388009 48.0198393,3.25763751 51.3441085,1.55984045 C52.2336503,1.1054974 53.0657886,0.540059746 53.9666827,6.36037859e-05" id="Fill-1" fill="#FFFFFF"></path>
                                    <g id="Group-5" transform="translate(0.000000, 29.270674)">
                                        <mask id="mask-2" fill="white">
                                            <use xlink:href="#path-1"></use>
                                        </mask>
                                        <g id="Clip-4"></g>
                                        <path d="M7.34997627,8.79373224 C12.6574547,17.5856836 17.5316216,26.5315561 18.765371,37.1020813 C17.5697479,36.9822941 16.5227744,36.9254747 15.4927222,36.7643452 C12.9084885,36.3596131 10.4814721,35.5637177 8.25194132,34.1303004 C5.31964461,32.2448721 3.52599576,29.5696969 2.37321118,26.3952319 C1.29132435,23.4162426 0.829310914,20.3206464 0.806178113,17.172471 C0.782616927,13.9261337 0.926340162,10.6785244 0.895282235,7.4323992 C0.871935241,4.97665703 0.664810996,2.52515511 -4.28385203e-05,0.103970989 C0.0869193576,0.103970989 0.158245494,0.0814976511 0.19744274,0.107151178 C3.79502167,2.45964321 7.74130616,4.13178674 11.6616733,5.84993701 C14.7167024,7.18900872 17.8451995,8.37458329 20.843896,9.82496162 C23.6637416,11.1886268 25.9750939,13.2042308 27.3737716,16.0763657 C28.4520172,18.2908375 28.7446043,20.6287007 28.5218439,23.0710861 C28.1847048,26.7683742 27.0769007,30.1798692 24.9261928,33.2396353 C24.8130991,33.4005529 24.699577,33.5610465 24.5796291,33.7170878 C24.5425738,33.7654266 24.4840992,33.7980766 24.3994931,33.8671927 C20.7188075,24.1599829 14.4476765,16.2020892 7.34997627,8.79373224" id="Fill-3" fill="#FFFFFF" mask="url(#mask-2)"></path>
                                    </g>
                                </g>
                            </g>
                        </g>
                    </g>
                </g>
            </g>
        </g>
    </g>
</svg>